<!DOCTYPE svg PUBLIC "-//W3C//DTD SVG 1.1//EN" "http://www.w3.org/Graphics/SVG/1.1/DTD/svg11.dtd">
<!-- Uploaded to: SVG Repo, www.svgrepo.com, Transformed by: SVG Repo Mixer Tools -->
<svg fill="oklch(0.4461 0.0263 256.8)" height="800px" width="800px" version="1.1" id="Layer_1" xmlns="http://www.w3.org/2000/svg" xmlns:xlink="http://www.w3.org/1999/xlink" viewBox="-51.2 -51.2 614.40 614.40" xml:space="preserve" stroke="oklch(0.4461 0.0263 256.8)" transform="matrix(1, 0, 0, 1, 0, 0)">
<g id="SVGRepo_bgCarrier" stroke-width="0"/>
<g id="SVGRepo_tracerCarrier" stroke-linecap="round" stroke-linejoin="round"/>
<g id="SVGRepo_iconCarrier"> <g> <g> <g> <path d="M221.867,315.733c0,11.375-12.1,17.835-12.399,17.988c-4.173,2.125-5.871,7.228-3.772,11.426 c1.502,2.995,4.514,4.719,7.646,4.719c1.28,0,2.586-0.29,3.806-0.896c0.888-0.452,21.786-11.153,21.786-33.237 c0-12.066-6.374-18.449-11.034-23.1c-4.181-4.181-6.033-6.238-6.033-11.034c0-11.452,12.271-17.929,12.348-17.963 c4.215-2.116,5.931-7.236,3.823-11.452c-2.108-4.207-7.228-5.931-11.452-3.823c-0.887,0.452-21.786,11.153-21.786,33.237 c0,12.066,6.374,18.449,11.034,23.1C220.015,308.881,221.867,310.938,221.867,315.733z"/> <path d="M204.8,85.333c0,9.412,7.654,17.067,17.067,17.067c9.412,0,17.067-7.654,17.067-17.067 c0-9.412-7.654-17.067-17.067-17.067C212.454,68.267,204.8,75.921,204.8,85.333z"/> <path d="M290.133,315.733c0,11.375-12.1,17.835-12.399,17.988c-4.173,2.125-5.871,7.228-3.772,11.426 c1.502,2.995,4.514,4.719,7.646,4.719c1.28,0,2.586-0.29,3.806-0.896c0.888-0.452,21.786-11.153,21.786-33.237 c0-12.066-6.374-18.449-11.034-23.1c-4.181-4.181-6.033-6.238-6.033-11.034c0-11.452,12.271-17.929,12.348-17.963 c4.215-2.116,5.931-7.236,3.823-11.452c-2.108-4.207-7.236-5.931-11.452-3.823c-0.888,0.452-21.786,11.153-21.786,33.237 c0,12.066,6.374,18.449,11.034,23.1C288.282,308.881,290.133,310.938,290.133,315.733z"/> <path d="M281.6,17.067h119.467c4.71,0,8.533-3.823,8.533-8.533S405.777,0,401.067,0H281.6c-4.71,0-8.533,3.823-8.533,8.533 S276.89,17.067,281.6,17.067z"/> <path d="M110.933,17.067h102.4c4.71,0,8.533-3.823,8.533-8.533S218.044,0,213.333,0h-102.4c-4.71,0-8.533,3.823-8.533,8.533 S106.223,17.067,110.933,17.067z"/> <path d="M435.2,34.133H76.8c-23.526,0-42.667,19.14-42.667,42.667V128c0,4.71,3.823,8.533,8.533,8.533H435.2 c4.71,0,8.533-3.823,8.533-8.533s-3.823-8.533-8.533-8.533h-384V76.8c0-14.114,11.486-25.6,25.6-25.6h358.4 c14.114,0,25.6,11.486,25.6,25.6v358.4c0,14.114-11.486,25.6-25.6,25.6c-4.71,0-8.533,3.823-8.533,8.533v25.6H85.333v-17.067 h315.733c4.71,0,8.533-3.823,8.533-8.533s-3.823-8.533-8.533-8.533H76.8c-14.114,0-25.6-11.486-25.6-25.6V162.133 c0-4.71-3.823-8.533-8.533-8.533c-4.71,0-8.533,3.823-8.533,8.533V435.2c0,20.608,14.686,37.837,34.133,41.805v26.462 c0,4.71,3.823,8.533,8.533,8.533h358.4c4.71,0,8.533-3.823,8.533-8.533v-26.462c19.447-3.959,34.133-21.197,34.133-41.805V76.8 C477.867,53.274,458.726,34.133,435.2,34.133z"/> <path d="M136.533,85.333c0,9.412,7.654,17.067,17.067,17.067c9.412,0,17.067-7.654,17.067-17.067 c0-9.412-7.654-17.067-17.067-17.067C144.188,68.267,136.533,75.921,136.533,85.333z"/> <path d="M341.333,85.333c0,9.412,7.654,17.067,17.067,17.067c9.412,0,17.067-7.654,17.067-17.067 c0-9.412-7.654-17.067-17.067-17.067C348.988,68.267,341.333,75.921,341.333,85.333z"/> <path d="M273.067,85.333c0,9.412,7.654,17.067,17.067,17.067c9.412,0,17.067-7.654,17.067-17.067 c0-9.412-7.654-17.067-17.067-17.067C280.721,68.267,273.067,75.921,273.067,85.333z"/> <path d="M418.133,443.733c14.114,0,25.6-11.486,25.6-25.6V179.2c0-14.114-11.486-25.6-25.6-25.6H93.867 c-14.114,0-25.6,11.486-25.6,25.6v238.933c0,14.114,11.486,25.6,25.6,25.6H418.133z M85.333,418.133V179.2 c0-4.702,3.831-8.533,8.533-8.533h324.267c4.702,0,8.533,3.831,8.533,8.533v238.933c0,4.702-3.831,8.533-8.533,8.533H93.867 C89.165,426.667,85.333,422.835,85.333,418.133z"/> </g> </g> </g> </g>
</svg>